HIERARCHY
ROOT mixamorig:Hips
{
	OFFSET 0.000000 104.274902 0.000000
	CHANNELS 6 Xposition Yposition Zposition Xrotation Yrotation Zrotation
	JOINT mixamorig:Spine
	{
		OFFSET 0.000000 10.181549 0.131524
		CHANNELS 6 Xposition Yposition Zposition Xrotation Yrotation Zrotation
		JOINT mixamorig:Spine1
		{
			OFFSET 0.000000 9.893990 -1.470706
			CHANNELS 3 Xrotation Yrotation Zrotation
			JOINT mixamorig:Spine2
			{
				OFFSET 0.000000 9.220787 -1.370636
				CHANNELS 3 Xrotation Yrotation Zrotation
				JOINT mixamorig:Neck
				{
					OFFSET 0.000000 16.740372 -2.049023
					CHANNELS 6 Xposition Yposition Zposition Xrotation Yrotation Zrotation
					JOINT mixamorig:Head
					{
						OFFSET 0.000000 9.617859 1.684975
						CHANNELS 6 Xposition Yposition Zposition Xrotation Yrotation Zrotation
						JOINT mixamorig:HeadTop_End
						{
							OFFSET 0.000000 22.037369 7.501070
							CHANNELS 6 Xposition Yposition Zposition Xrotation Yrotation Zrotation
							End Site
							{
								OFFSET 0.000000 23.106567 -2.828246
							}
						}
					}
				}
				JOINT mixamorig:RightShoulder
				{
					OFFSET -4.570000 11.014862 -2.160841
					CHANNELS 6 Xposition Yposition Zposition Xrotation Yrotation Zrotation
					JOINT mixamorig:RightArm
					{
						OFFSET -10.592869 -0.524796 -2.232105
						CHANNELS 3 Xrotation Yrotation Zrotation
						JOINT mixamorig:RightForeArm
						{
							OFFSET -27.841499 0.000000 0.000000
							CHANNELS 3 Xrotation Yrotation Zrotation
							JOINT mixamorig:RightHand
							{
								OFFSET -28.328800 0.000000 0.000000
								CHANNELS 3 Xrotation Yrotation Zrotation
								JOINT mixamorig:RightHandThumb1
								{
									OFFSET -2.464798 -1.573990 2.681910
									CHANNELS 6 Xposition Yposition Zposition Xrotation Yrotation Zrotation
									JOINT mixamorig:RightHandThumb2
									{
										OFFSET -3.244789 -1.873367 1.873378
										CHANNELS 3 Xrotation Yrotation Zrotation
										JOINT mixamorig:RightHandThumb3
										{
											OFFSET -2.646255 -1.527817 1.527816
											CHANNELS 3 Xrotation Yrotation Zrotation
											JOINT mixamorig:RightHandThumb4
											{
												OFFSET -1.994583 -1.151581 1.151575
												CHANNELS 3 Xrotation Yrotation Zrotation
												End Site
												{
													OFFSET -1.860176 -1.142715 1.365483
												}
											}
										}
									}
								}
								JOINT mixamorig:RightHandIndex1
								{
									OFFSET -9.108299 -0.517883 2.259803
									CHANNELS 6 Xposition Yposition Zposition Xrotation Yrotation Zrotation
									JOINT mixamorig:RightHandIndex2
									{
										OFFSET -3.700005 0.000000 0.000000
										CHANNELS 3 Xrotation Yrotation Zrotation
										JOINT mixamorig:RightHandIndex3
										{
											OFFSET -2.849998 0.000000 0.000000
											CHANNELS 3 Xrotation Yrotation Zrotation
											JOINT mixamorig:RightHandIndex4
											{
												OFFSET -2.772202 0.000000 0.000000
												CHANNELS 3 Xrotation Yrotation Zrotation
												End Site
												{
													OFFSET -2.772202 0.000000 -0.000484
												}
											}
										}
									}
								}
								JOINT mixamorig:RightHandMiddle1
								{
									OFFSET -9.532501 0.000000 0.000000
									CHANNELS 6 Xposition Yposition Zposition Xrotation Yrotation Zrotation
									JOINT mixamorig:RightHandMiddle2
									{
										OFFSET -3.699997 0.000000 0.000000
										CHANNELS 3 Xrotation Yrotation Zrotation
										JOINT mixamorig:RightHandMiddle3
										{
											OFFSET -2.950005 0.000000 0.000000
											CHANNELS 3 Xrotation Yrotation Zrotation
											JOINT mixamorig:RightHandMiddle4
											{
												OFFSET -2.946602 0.000000 0.000000
												CHANNELS 3 Xrotation Yrotation Zrotation
												End Site
												{
													OFFSET -2.946594 0.000000 -0.000982
												}
											}
										}
									}
								}
								JOINT mixamorig:RightHandRing1
								{
									OFFSET -9.103600 -0.043106 -1.865100
									CHANNELS 6 Xposition Yposition Zposition Xrotation Yrotation Zrotation
									JOINT mixamorig:RightHandRing2
									{
										OFFSET -3.379303 0.000000 0.000000
										CHANNELS 3 Xrotation Yrotation Zrotation
										JOINT mixamorig:RightHandRing3
										{
											OFFSET -2.889702 0.000000 0.000000
											CHANNELS 3 Xrotation Yrotation Zrotation
											JOINT mixamorig:RightHandRing4
											{
												OFFSET -2.638794 0.000000 0.000000
												CHANNELS 3 Xrotation Yrotation Zrotation
												End Site
												{
													OFFSET -2.638794 0.000000 0.004219
												}
											}
										}
									}
								}
								JOINT mixamorig:RightHandPinky1
								{
									OFFSET -8.076698 -0.486725 -3.806297
									CHANNELS 6 Xposition Yposition Zposition Xrotation Yrotation Zrotation
									JOINT mixamorig:RightHandPinky2
									{
										OFFSET -3.600006 0.000000 0.000000
										CHANNELS 3 Xrotation Yrotation Zrotation
										JOINT mixamorig:RightHandPinky3
										{
											OFFSET -2.099998 0.000000 0.000000
											CHANNELS 3 Xrotation Yrotation Zrotation
											JOINT mixamorig:RightHandPinky4
											{
												OFFSET -2.115799 0.000000 0.000000
												CHANNELS 3 Xrotation Yrotation Zrotation
												End Site
												{
													OFFSET -2.115799 0.000000 0.000174
												}
											}
										}
									}
								}
							}
						}
					}
				}
				JOINT mixamorig:LeftShoulder
				{
					OFFSET 4.570400 11.014664 -2.160817
					CHANNELS 6 Xposition Yposition Zposition Xrotation Yrotation Zrotation
					JOINT mixamorig:LeftArm
					{
						OFFSET 10.592365 -0.524597 -2.232113
						CHANNELS 3 Xrotation Yrotation Zrotation
						JOINT mixamorig:LeftForeArm
						{
							OFFSET 27.841499 0.000000 0.000000
							CHANNELS 3 Xrotation Yrotation Zrotation
							JOINT mixamorig:LeftHand
							{
								OFFSET 28.328804 0.000000 0.000000
								CHANNELS 3 Xrotation Yrotation Zrotation
								JOINT mixamorig:LeftHandThumb1
								{
									OFFSET 2.466095 -1.576202 2.681697
									CHANNELS 6 Xposition Yposition Zposition Xrotation Yrotation Zrotation
									JOINT mixamorig:LeftHandThumb2
									{
										OFFSET 3.243317 -1.872528 1.872528
										CHANNELS 3 Xrotation Yrotation Zrotation
										JOINT mixamorig:LeftHandThumb3
										{
											OFFSET 2.647881 -1.528763 1.528755
											CHANNELS 3 Xrotation Yrotation Zrotation
											JOINT mixamorig:LeftHandThumb4
											{
												OFFSET 1.998924 -1.154068 1.154079
												CHANNELS 3 Xrotation Yrotation Zrotation
												End Site
												{
													OFFSET 1.884041 -1.149155 1.337651
												}
											}
										}
									}
								}
								JOINT mixamorig:LeftHandIndex1
								{
									OFFSET 9.109299 -0.518005 2.259899
									CHANNELS 6 Xposition Yposition Zposition Xrotation Yrotation Zrotation
									JOINT mixamorig:LeftHandIndex2
									{
										OFFSET 3.699997 0.000000 0.000000
										CHANNELS 3 Xrotation Yrotation Zrotation
										JOINT mixamorig:LeftHandIndex3
										{
											OFFSET 2.849998 0.000000 0.000000
											CHANNELS 3 Xrotation Yrotation Zrotation
											JOINT mixamorig:LeftHandIndex4
											{
												OFFSET 2.774902 0.000000 0.000000
												CHANNELS 3 Xrotation Yrotation Zrotation
												End Site
												{
													OFFSET 2.774902 0.000000 -0.000072
												}
											}
										}
									}
								}
								JOINT mixamorig:LeftHandMiddle1
								{
									OFFSET 9.533394 0.000000 0.000000
									CHANNELS 6 Xposition Yposition Zposition Xrotation Yrotation Zrotation
									JOINT mixamorig:LeftHandMiddle2
									{
										OFFSET 3.700005 0.000000 0.000000
										CHANNELS 3 Xrotation Yrotation Zrotation
										JOINT mixamorig:LeftHandMiddle3
										{
											OFFSET 2.949997 0.000000 0.000000
											CHANNELS 3 Xrotation Yrotation Zrotation
											JOINT mixamorig:LeftHandMiddle4
											{
												OFFSET 2.952904 0.000000 0.000000
												CHANNELS 3 Xrotation Yrotation Zrotation
												End Site
												{
													OFFSET 2.952896 0.000000 0.000165
												}
											}
										}
									}
								}
								JOINT mixamorig:LeftHandRing1
								{
									OFFSET 9.104500 -0.042999 -1.865100
									CHANNELS 6 Xposition Yposition Zposition Xrotation Yrotation Zrotation
									JOINT mixamorig:LeftHandRing2
									{
										OFFSET 3.149994 0.000000 0.000000
										CHANNELS 3 Xrotation Yrotation Zrotation
										JOINT mixamorig:LeftHandRing3
										{
											OFFSET 2.950005 0.000000 0.000000
											CHANNELS 3 Xrotation Yrotation Zrotation
											JOINT mixamorig:LeftHandRing4
											{
												OFFSET 2.644295 0.000000 0.000000
												CHANNELS 3 Xrotation Yrotation Zrotation
												End Site
												{
													OFFSET 2.644302 0.000000 0.000083
												}
											}
										}
									}
								}
								JOINT mixamorig:LeftHandPinky1
								{
									OFFSET 8.077797 -0.486893 -3.806301
									CHANNELS 6 Xposition Yposition Zposition Xrotation Yrotation Zrotation
									JOINT mixamorig:LeftHandPinky2
									{
										OFFSET 3.599998 0.000000 0.000000
										CHANNELS 3 Xrotation Yrotation Zrotation
										JOINT mixamorig:LeftHandPinky3
										{
											OFFSET 2.099998 0.000000 0.000000
											CHANNELS 3 Xrotation Yrotation Zrotation
											JOINT mixamorig:LeftHandPinky4
											{
												OFFSET 2.125504 0.000000 0.000000
												CHANNELS 3 Xrotation Yrotation Zrotation
												End Site
												{
													OFFSET 2.125504 0.000000 -0.001254
												}
											}
										}
									}
								}
							}
						}
					}
				}
			}
		}
	}
	JOINT mixamorig:RightUpLeg
	{
		OFFSET -8.207800 -6.751701 -1.599544
		CHANNELS 6 Xposition Yposition Zposition Xrotation Yrotation Zrotation
		JOINT mixamorig:RightLeg
		{
			OFFSET 0.000000 -44.370155 0.345934
			CHANNELS 3 Xrotation Yrotation Zrotation
			JOINT mixamorig:RightFoot
			{
				OFFSET 0.000000 -44.423664 -3.043536
				CHANNELS 3 Xrotation Yrotation Zrotation
				JOINT mixamorig:RightToeBase
				{
					OFFSET 0.000000 -8.728685 10.710592
					CHANNELS 3 Xrotation Yrotation Zrotation
					JOINT mixamorig:RightToe_End
					{
						OFFSET 0.000000 -0.000664 9.278099
						CHANNELS 3 Xrotation Yrotation Zrotation
						End Site
						{
							OFFSET 0.000000 -0.000664 9.278101
						}
					}
				}
			}
		}
	}
	JOINT mixamorig:LeftUpLeg
	{
		OFFSET 8.207800 -6.751701 -1.599544
		CHANNELS 6 Xposition Yposition Zposition Xrotation Yrotation Zrotation
		JOINT mixamorig:LeftLeg
		{
			OFFSET 0.000000 -44.370049 0.346940
			CHANNELS 3 Xrotation Yrotation Zrotation
			JOINT mixamorig:LeftFoot
			{
				OFFSET 0.000000 -44.423603 -3.044389
				CHANNELS 3 Xrotation Yrotation Zrotation
				JOINT mixamorig:LeftToeBase
				{
					OFFSET 0.000000 -8.728686 10.710592
					CHANNELS 3 Xrotation Yrotation Zrotation
					JOINT mixamorig:LeftToe_End
					{
						OFFSET 0.000000 -0.000680 9.278100
						CHANNELS 3 Xrotation Yrotation Zrotation
						End Site
						{
							OFFSET 0.000000 -0.000680 9.278100
						}
					}
				}
			}
		}
	}
}
MOTION
Frames: 4
Frame Time: 0.033333
21.861425 101.970039 2.580208 -6.468964 -7.101285 -2.216590 0.000000 10.181557 0.131524 3.932633 3.633720 -1.685100 1.179622 1.304993 0.100475 1.192275 1.296542 0.088577 0.000001 16.740368 -2.049021 0.773284 -8.419176 -2.948548 0.000005 9.617850 1.684985 -10.782826 -16.764848 21.581760 0.000004 22.037399 7.501078 -0.000003 0.000000 -0.000000 -4.570003 11.014873 -2.160843 9.775926 -1.342428 14.941162 3.602314 48.771645 48.877660 -0.000001 43.787646 0.000033 -7.725344 20.575844 14.641709 -2.464795 -1.574019 2.681910 18.491281 0.461460 -10.916079 1.284042 -32.757611 3.088944 2.008727 -8.430456 1.114699 -0.000003 -0.000003 0.000004 -9.108299 -0.517886 2.259805 1.258408 -7.086604 33.630748 2.022489 -5.163629 49.210031 -0.010972 -1.480964 26.094258 -0.000001 -0.000002 0.000002 -9.532502 -0.000013 0.000005 2.797130 -10.563248 41.829554 2.983428 -5.931490 62.147796 0.677650 -2.822828 28.169119 -0.000004 -0.000000 -0.000001 -9.103597 -0.043085 -1.865095 5.470776 -12.392327 53.115420 4.180681 -5.294051 69.059701 0.087076 -1.196714 30.064317 0.000002 -0.000000 -0.000003 -8.076690 -0.486740 -3.806305 7.626056 -17.670794 63.229698 3.721789 -5.704254 74.376054 -0.631942 -1.628428 34.360390 -0.000001 0.000002 0.000001 4.570399 11.014668 -2.160819 6.268612 -7.626794 -6.452813 -8.758190 -6.067740 -70.121488 -0.000003 -12.596607 -0.000004 -24.908650 -19.767682 -13.195646 2.466081 -1.576215 2.681686 16.381415 -4.678324 10.879040 -1.038024 26.660578 -3.217460 1.373239 6.280995 -0.893498 0.000000 0.000004 -0.000001 9.109274 -0.518018 2.259897 0.234877 4.485997 -17.961125 0.935797 3.915803 -32.713389 0.030268 0.785606 -9.858774 -0.000003 -0.000000 -0.000003 9.533384 0.000000 0.000002 1.726409 10.113618 -24.088556 1.433155 4.681075 -42.040368 0.163154 1.458711 -11.953401 0.000003 -0.000000 0.000000 9.104504 -0.043001 -1.865102 4.680553 13.876667 -35.557432 2.248536 4.346998 -47.322891 0.531904 1.807086 -19.032910 -0.000000 -0.000002 -0.000000 8.077789 -0.486896 -3.806297 7.838603 19.488155 -45.055001 1.869533 4.579829 -52.644376 0.332509 2.475349 -16.465742 0.000000 -0.000002 0.000001 -8.207802 -6.751707 -1.599544 -4.784731 -11.954009 -6.390821 23.901817 0.945347 -4.104885 -12.292618 8.356199 -2.043443 -2.578183 -0.000001 0.000004 0.000000 -0.000001 -0.000001 8.207800 -6.751704 -1.599544 -7.271010 12.425513 1.640920 21.270616 9.909561 -6.676492 -10.547060 13.688915 8.080681 -5.146156 -0.000014 -0.000002 0.000000 -0.000000 -0.000000 
21.455692 101.981979 2.657632 -6.396616 -8.091577 -2.455390 0.000002 10.181545 0.131525 3.923760 3.450041 -1.686296 1.176454 1.236248 0.081737 1.188346 1.227685 0.070404 -0.000001 16.740393 -2.049024 0.796555 -8.383628 -3.044153 0.000005 9.617828 1.684980 -10.545302 -16.431574 21.106029 -0.000000 22.037354 7.501074 -0.000001 -0.000000 0.000001 -4.570002 11.014894 -2.160845 9.929160 -1.455158 14.212977 3.256700 47.913586 50.301611 -0.000020 43.012566 0.000058 -14.582008 16.722451 19.680111 -2.464791 -1.573977 2.681920 18.491293 0.461431 -10.916095 1.284047 -32.757604 3.088975 2.008714 -8.430480 1.114697 -0.000006 -0.000001 -0.000001 -9.108284 -0.517883 2.259815 1.306681 -7.157457 34.480144 2.087713 -5.218829 50.059406 0.011460 -1.566186 26.938032 0.000003 0.000001 -0.000000 -9.532495 0.000015 0.000010 2.871547 -10.607473 42.686326 3.058063 -5.971839 63.000155 0.718195 -2.896901 29.014640 0.000002 -0.000001 -0.000001 -9.103602 -0.043092 -1.865083 5.569664 -12.395057 53.977158 4.262934 -5.315850 69.914206 0.113558 -1.279188 30.907982 0.000001 0.000000 0.000000 -8.076708 -0.486720 -3.806292 7.705739 -17.708380 64.097425 3.802015 -5.733417 75.227526 -0.614500 -1.722318 35.203273 0.000001 -0.000000 -0.000000 4.570399 11.014676 -2.160821 6.264714 -7.697910 -6.476233 -6.367614 -3.263327 -69.819812 0.000005 -11.198147 0.000035 -24.594260 -22.262006 -9.183719 2.466085 -1.576202 2.681695 15.661453 -6.055873 10.810179 -1.778336 24.657743 -3.317629 1.123379 5.286373 -1.077294 -0.000001 0.000003 0.000001 9.109285 -0.518014 2.259906 0.122229 3.805977 -15.166573 0.775135 3.650828 -29.637663 0.008422 0.604269 -8.058198 -0.000000 0.000001 -0.000002 9.533392 0.000018 0.000003 1.540916 10.087423 -20.615111 1.167226 4.351472 -37.789613 0.123521 1.283144 -10.151895 0.000001 -0.000000 0.000000 9.104495 -0.043005 -1.865089 4.543146 14.421147 -32.126765 1.880456 4.044883 -42.543032 0.460016 1.643410 -17.230590 -0.000000 -0.000000 -0.000000 8.077795 -0.486895 -3.806296 7.896084 20.300325 -41.404323 1.527202 4.242981 -47.858729 0.235046 2.185973 -13.431534 0.000001 0.000000 0.000000 -8.207801 -6.751712 -1.599544 -4.928565 -11.836836 -6.143574 23.851745 1.179193 -3.968630 -12.123224 9.086003 -1.707377 -2.670319 0.000006 0.000003 -0.000000 -0.000000 0.000000 8.207800 -6.751692 -1.599545 -7.538568 12.511026 2.209002 21.612689 9.916392 -6.776197 -10.721045 14.458003 7.803020 -5.210473 -0.000003 0.000003 0.000000 0.000000 0.000000 
20.966892 101.994675 2.734298 -6.339909 -9.106526 -2.723283 0.000001 10.181551 0.131523 3.883398 3.198701 -1.672979 1.164574 1.139574 0.064794 1.175436 1.130969 0.054403 -0.000002 16.740377 -2.049021 0.856714 -8.290648 -3.181066 0.000005 9.617817 1.684976 -10.294616 -16.049206 20.441296 -0.000002 22.037369 7.501078 -0.000001 -0.000001 0.000001 -4.570001 11.014862 -2.160845 10.075675 -1.579157 13.378397 3.367295 46.802727 51.428702 -0.000028 41.988062 0.000074 -21.105559 13.693369 22.336959 -2.464791 -1.573986 2.681914 18.491296 0.461455 -10.916084 1.284048 -32.757628 3.088969 2.008721 -8.430478 1.114696 -0.000001 0.000001 0.000000 -9.108291 -0.517874 2.259803 1.352563 -7.222798 35.271647 2.149200 -5.269365 50.850803 0.033488 -1.645285 27.724166 0.000000 0.000001 -0.000003 -9.532488 0.000010 -0.000002 2.941197 -10.647457 43.484642 3.128127 -6.008446 63.794356 0.756993 -2.965350 29.802421 0.000005 0.000002 0.000003 -9.103595 -0.043098 -1.865098 5.661213 -12.395936 54.779931 4.339832 -5.335033 70.710312 0.139310 -1.355722 31.694011 -0.000005 -0.000000 -0.000002 -8.076704 -0.486725 -3.806306 7.780509 -17.742332 64.906010 3.877169 -5.759531 76.020846 -0.597053 -1.809529 35.988554 0.000001 0.000003 -0.000001 4.570397 11.014682 -2.160819 6.262426 -7.809621 -6.566178 -4.136783 -0.440643 -69.393363 0.000019 -9.951049 -0.000005 -23.917808 -24.968381 -4.372692 2.466093 -1.576208 2.681693 14.877298 -7.519295 10.704897 -2.559721 22.523189 -3.453594 0.853807 4.226500 -1.277804 -0.000000 -0.000001 -0.000000 9.109317 -0.518016 2.259895 0.060528 3.071291 -12.191603 0.619792 3.359194 -26.359203 -0.008563 0.410223 -6.138011 -0.000002 0.000001 0.000002 9.533407 0.000014 0.000004 1.327095 10.045920 -16.908521 0.911555 3.979343 -33.259862 0.087357 1.094627 -8.230818 -0.000001 0.000003 0.000002 9.104510 -0.042998 -1.865097 4.308620 15.000455 -28.444873 1.517299 3.690203 -37.449241 0.389072 1.466465 -15.308802 0.000002 0.000000 -0.000000 8.077796 -0.486895 -3.806293 7.823334 21.199555 -37.466224 1.194683 3.853718 -42.759419 0.148167 1.872167 -10.196689 -0.000000 -0.000000 0.000000 -8.207802 -6.751714 -1.599545 -5.033605 -11.718802 -5.830170 23.806539 1.464822 -3.796667 -11.966457 9.766077 -1.470482 -2.759026 0.000004 0.000000 -0.000000 0.000000 0.000000 8.207797 -6.751706 -1.599546 -7.822583 12.608399 2.863143 22.009697 9.925067 -6.856618 -10.890013 15.222403 7.449632 -5.252169 0.000014 0.000002 0.000000 0.000000 0.000000 
20.392870 102.008484 2.809100 -6.303145 -10.116825 -3.006766 -0.000000 10.181561 0.131522 3.837913 2.874591 -1.641428 1.152517 1.012951 0.048885 1.162071 1.004276 0.039778 -0.000002 16.740345 -2.049020 0.923557 -8.142906 -3.362989 0.000002 9.617827 1.684983 -10.049414 -15.632350 19.641461 -0.000002 22.037384 7.501065 -0.000000 0.000001 0.000001 -4.569998 11.014818 -2.160840 10.211923 -1.723946 12.421556 3.734412 45.439865 52.350579 0.000003 40.722787 0.000040 -27.294413 11.844373 23.189163 -2.464799 -1.573983 2.681916 18.491305 0.461463 -10.916073 1.284031 -32.757628 3.088947 2.008716 -8.430467 1.114708 -0.000001 -0.000002 -0.000001 -9.108317 -0.517870 2.259803 1.394662 -7.281076 35.984049 2.205115 -5.314145 51.563079 0.054250 -1.716190 28.431596 -0.000005 0.000001 0.000001 -9.532509 0.000018 -0.000002 3.004194 -10.682483 44.203167 3.191606 -6.040533 64.509101 0.792668 -3.026505 30.511421 -0.000001 -0.000003 0.000001 -9.103598 -0.043099 -1.865101 5.743098 -12.395362 55.502285 4.409257 -5.351409 71.426737 0.163409 -1.424239 32.401386 -0.000004 -0.000004 -0.000003 -8.076701 -0.486723 -3.806304 7.848246 -17.772048 65.633829 3.945093 -5.782132 76.734792 -0.580303 -1.887791 36.695294 0.000001 0.000002 -0.000002 4.570399 11.014644 -2.160815 6.261479 -7.976478 -6.737833 -2.123678 2.255246 -68.824620 -0.000003 -8.874053 -0.000003 -22.794098 -27.466004 1.115536 2.466094 -1.576202 2.681686 14.046626 -9.026722 10.560406 -3.362056 20.316302 -3.624861 0.571251 3.130723 -1.490305 0.000002 0.000002 -0.000001 9.109295 -0.518006 2.259894 0.060609 2.305300 -9.117494 0.476960 3.048607 -22.968418 -0.019310 0.208926 -4.151044 -0.000000 -0.000000 -0.000001 9.533398 0.000001 -0.000006 1.090036 9.985784 -13.070960 0.678950 3.574318 -28.576238 0.056641 0.898383 -6.243130 0.000002 -0.000000 0.000002 9.104505 -0.042994 -1.865101 3.970155 15.588636 -24.608483 1.176373 3.290782 -32.182362 0.321949 1.280971 -13.320491 0.000001 -0.000001 0.000002 8.077791 -0.486890 -3.806304 7.595391 22.151459 -33.337306 0.888656 3.421553 -37.487398 0.077076 1.542800 -6.850278 0.000002 -0.000000 0.000001 -8.207799 -6.751697 -1.599545 -5.084666 -11.593828 -5.440926 23.770617 1.780702 -3.611321 -11.862193 10.351476 -1.405631 -2.815797 0.000006 0.000001 -0.000000 -0.000000 0.000002 8.207800 -6.751696 -1.599545 -8.105624 12.691923 3.569763 22.439246 9.935525 -6.891360 -11.035833 15.988836 7.008631 -5.269651 -0.000000 -0.000001 0.000000 -0.000002 0.000001 
